<svg width="256" height="256" viewBox="0 0 256 256" fill="none" xmlns="http://www.w3.org/2000/svg">
<path d="M128 256C198.692 256 256 198.692 256 128C256 57.3075 198.692 0 128 0C57.3075 0 0 57.3075 0 128C0 198.692 57.3075 256 128 256Z" fill="#FFDE3D"/>
<mask id="mask0_316_114" style="mask-type:alpha" maskUnits="userSpaceOnUse" x="53" y="37" width="165" height="174">
<path d="M53.9365 37.8365H217.657V210.734H53.9365V37.8365Z" fill="white"/>
</mask>
<g mask="url(#mask0_316_114)">
<path opacity="0.1" fill-rule="evenodd" clip-rule="evenodd" d="M169.97 180.636C165.366 188.081 160.007 194.237 153.899 199.107C147.787 203.977 141.101 207.339 133.837 209.196C126.572 211.053 118.837 211.229 110.64 209.719C102.44 208.208 94.041 204.778 85.45 199.423C76.737 193.993 69.8913 187.924 64.906 181.218C59.9196 174.511 56.648 167.476 55.0839 160.117C53.5198 152.757 53.5536 145.25 55.193 137.593C56.828 129.936 59.9499 122.385 64.5539 114.941L112.241 37.8363L139.787 55.0031L92.7575 131.044C90.3459 134.943 88.734 138.934 87.9247 143.011C87.1137 147.091 87.0765 151.039 87.8167 154.854C88.5529 158.671 90.0619 162.231 92.3436 165.534C94.6203 168.836 97.5854 171.624 101.236 173.899C104.883 176.173 108.658 177.584 112.561 178.133C116.46 178.683 120.278 178.442 124.015 177.413C127.747 176.385 131.257 174.602 134.541 172.062C137.823 169.526 140.67 166.305 143.082 162.406L190.111 86.3654L217.657 103.532L169.97 180.636Z" fill="black"/>
</g>
<path fill-rule="evenodd" clip-rule="evenodd" d="M75.5494 83.7659H82.6122C83.687 83.7659 84.8254 83.7275 86.0284 83.6502C87.2303 83.5734 88.3186 83.3419 89.2915 82.9569C90.2628 82.5713 91.0688 81.9678 91.7094 81.1457C92.3488 80.3243 92.6689 79.1686 92.6689 77.6776C92.6689 76.2905 92.3871 75.1867 91.8247 74.3642C91.2611 73.5433 90.5446 72.9132 89.6751 72.4763C88.8039 72.0398 87.8062 71.744 86.6808 71.5899C85.5548 71.4358 84.4547 71.3584 83.38 71.3584H75.5494V83.7659ZM63.5732 61.186H84.6083C87.372 61.186 89.994 61.4559 92.4771 61.9951C94.959 62.5348 97.1339 63.4341 99.0028 64.6926C100.87 65.9521 102.354 67.6475 103.455 69.7787C104.555 71.9111 105.106 74.5702 105.106 77.755C105.106 81.6081 104.108 84.8832 102.112 87.5807C100.116 90.2776 97.1986 91.9866 93.3601 92.7053L107.179 115.747H92.8224L81.4604 93.9383H75.5494V115.747H63.5732V61.186Z" fill="black" fill-opacity="0.3"/>
<path fill-rule="evenodd" clip-rule="evenodd" d="M58.1992 142.717H71.8643L85.2994 178.475H85.4529L99.1175 142.717H111.938L89.5215 197.278H79.9249L58.1992 142.717Z" fill="black" fill-opacity="0.3"/>
<path fill-rule="evenodd" clip-rule="evenodd" d="M156.086 169.998C156.086 172.567 156.482 174.917 157.276 177.049C158.069 179.182 159.208 181.031 160.692 182.597C162.177 184.165 163.955 185.385 166.028 186.258C168.101 187.132 170.416 187.568 172.976 187.568C175.535 187.568 177.851 187.132 179.923 186.258C181.996 185.385 183.774 184.165 185.259 182.597C186.743 181.031 187.881 179.182 188.675 177.049C189.468 174.917 189.865 172.567 189.865 169.998C189.865 167.481 189.468 165.143 188.675 162.985C187.881 160.827 186.743 158.966 185.259 157.398C183.774 155.831 181.996 154.612 179.923 153.737C177.851 152.864 175.535 152.427 172.976 152.427C170.416 152.427 168.101 152.864 166.028 153.737C163.955 154.612 162.177 155.831 160.692 157.398C159.208 158.966 158.069 160.827 157.276 162.985C156.482 165.143 156.086 167.481 156.086 169.998ZM143.649 169.998C143.649 165.631 144.379 161.675 145.837 158.13C147.296 154.585 149.33 151.567 151.941 149.075C154.551 146.583 157.647 144.67 161.23 143.334C164.812 141.998 168.727 141.33 172.976 141.33C177.224 141.33 181.139 141.998 184.722 143.334C188.303 144.67 191.4 146.583 194.011 149.075C196.621 151.567 198.655 154.585 200.114 158.13C201.572 161.675 202.302 165.631 202.302 169.998C202.302 174.365 201.572 178.321 200.114 181.866C198.655 185.41 196.621 188.429 194.011 190.921C191.4 193.413 188.303 195.326 184.722 196.662C181.139 197.997 177.224 198.665 172.976 198.665C168.727 198.665 164.812 197.997 161.23 196.662C157.647 195.326 154.551 193.413 151.941 190.921C149.33 188.429 147.296 185.41 145.837 181.866C144.379 178.321 143.649 174.365 143.649 169.998Z" fill="black" fill-opacity="0.3"/>
<mask id="mask1_316_114" style="mask-type:alpha" maskUnits="userSpaceOnUse" x="53" y="37" width="165" height="174">
<path d="M53.9365 210.734H217.657V37.8365H53.9365V210.734Z" fill="white"/>
</mask>
<g mask="url(#mask1_316_114)">
<path fill-rule="evenodd" clip-rule="evenodd" d="M147.437 72.3412H196.517V61.1865H147.437V72.3412Z" fill="black" fill-opacity="0.3"/>
<path fill-rule="evenodd" clip-rule="evenodd" d="M147.437 93.5502H196.517V82.3955H147.437V93.5502Z" fill="black" fill-opacity="0.3"/>
<path fill-rule="evenodd" clip-rule="evenodd" d="M147.437 114.759H196.517V103.605H147.437V114.759Z" fill="black" fill-opacity="0.3"/>
<path fill-rule="evenodd" clip-rule="evenodd" d="M172.55 114.76H196.516V103.605H179.449L172.55 114.76Z" fill="black"/>
<path fill-rule="evenodd" clip-rule="evenodd" d="M184.721 143.334C181.138 141.998 177.223 141.33 172.976 141.33C168.727 141.33 164.812 141.998 161.23 143.334C157.646 144.67 154.55 146.583 151.94 149.075C151.31 149.677 150.715 150.311 150.152 150.974L146.111 157.508C146.019 157.716 145.924 157.919 145.837 158.13C144.379 161.675 143.649 165.631 143.649 169.998C143.649 174.365 144.379 178.321 145.837 181.866C147.296 185.41 149.33 188.429 151.94 190.921C153.785 192.682 155.879 194.149 158.209 195.332C161.032 192.633 163.672 189.619 166.131 186.299C166.097 186.284 166.062 186.273 166.028 186.258C163.955 185.385 162.176 184.165 160.692 182.597C159.207 181.031 158.069 179.182 157.276 177.049C156.482 174.917 156.086 172.567 156.086 169.998C156.086 167.481 156.482 165.143 157.276 162.985C158.069 160.827 159.207 158.966 160.692 157.398C162.176 155.831 163.955 154.612 166.028 153.737C168.101 152.864 170.416 152.427 172.976 152.427C175.534 152.427 177.85 152.864 179.923 153.737C181.739 154.503 183.328 155.534 184.693 156.832L191.009 146.619C189.112 145.288 187.018 144.191 184.721 143.334Z" fill="black"/>
<path fill-rule="evenodd" clip-rule="evenodd" d="M79.0411 195.063C80.0478 195.812 81.0849 196.551 82.1546 197.278H89.5195L99.5806 172.791C96.6808 170.736 94.2641 168.32 92.3423 165.533C91.907 164.903 91.5093 164.261 91.1303 163.613L85.451 178.474H85.2974L71.8624 142.717H58.1973L79.0411 195.063Z" fill="black"/>
<path fill-rule="evenodd" clip-rule="evenodd" d="M75.5488 115.747V97.1644L64.5546 114.941C64.3881 115.209 64.2284 115.478 64.0664 115.747H75.5488Z" fill="black"/>
<path fill-rule="evenodd" clip-rule="evenodd" d="M102.217 115.747L104.735 111.676L93.3582 92.7055C97.1967 91.9862 100.114 90.2778 102.11 87.5803C104.106 84.8834 105.104 81.6078 105.104 77.7552C105.104 74.5699 104.554 71.9113 103.454 69.779C102.352 67.6477 100.869 65.9523 99.0009 64.6928C98.2186 64.1655 97.3789 63.7053 96.4886 63.3045L90.496 72.9936C91.0033 73.369 91.4499 73.8207 91.8228 74.3644C92.3852 75.1864 92.6675 76.2907 92.6675 77.6778C92.6675 79.1683 92.347 80.3245 91.7081 81.1454C91.0669 81.968 90.261 82.5715 89.2897 82.9565C88.3167 83.3421 87.2284 83.573 86.0271 83.6504C85.2717 83.6984 84.5518 83.726 83.8477 83.7441L77.543 93.9385H81.4591L92.8211 115.747H102.217Z" fill="black"/>
<path fill-rule="evenodd" clip-rule="evenodd" d="M185.667 93.5503H196.516V90.3571L190.111 86.365L185.667 93.5503Z" fill="black"/>
</g>
</svg>
